# Blender v2.91.0 OBJ File: ''
# www.blender.org
mtllib Fuse.mtl
o Cylinder
v -0.000000 1.126984 -3.721098
v -0.000000 1.126984 3.721098
v 0.431278 1.041197 -3.721098
v 0.431278 1.041197 3.721098
v 0.796898 0.796898 -3.721098
v 0.796898 0.796898 3.721098
v 1.041197 0.431278 -3.721098
v 1.041197 0.431278 3.721098
v 1.126984 0.000000 -3.721098
v 1.126984 -0.000000 3.721098
v 1.041197 -0.431278 -3.721098
v 1.041197 -0.431278 3.721098
v 0.796898 -0.796898 -3.721098
v 0.796898 -0.796898 3.721098
v 0.431278 -1.041197 -3.721098
v 0.431278 -1.041197 3.721098
v 0.000000 -1.126984 -3.721098
v 0.000000 -1.126984 3.721098
v -0.431278 -1.041197 -3.721098
v -0.431278 -1.041198 3.721098
v -0.796898 -0.796898 -3.721098
v -0.796898 -0.796898 3.721098
v -1.041197 -0.431278 -3.721098
v -1.041197 -0.431278 3.721098
v -1.126984 0.000000 -3.721098
v -1.126984 -0.000000 3.721098
v -1.041197 0.431278 -3.721098
v -1.041197 0.431278 3.721098
v -0.796898 0.796898 -3.721098
v -0.796898 0.796898 3.721098
v -0.431278 1.041198 -3.721098
v -0.431278 1.041197 3.721098
v -0.000000 1.126984 -3.097954
v -0.000000 1.126984 3.097954
v 0.431278 1.041197 3.097954
v 0.431278 1.041197 -3.097954
v 0.796898 0.796898 3.097954
v 0.796898 0.796898 -3.097954
v 1.041197 0.431278 3.097954
v 1.041197 0.431278 -3.097954
v 1.126984 -0.000000 3.097954
v 1.126984 0.000000 -3.097954
v 1.041197 -0.431278 3.097954
v 1.041197 -0.431278 -3.097954
v 0.796898 -0.796898 3.097954
v 0.796898 -0.796898 -3.097954
v 0.431278 -1.041197 3.097954
v 0.431278 -1.041197 -3.097954
v 0.000000 -1.126984 3.097954
v 0.000000 -1.126984 -3.097954
v -0.431278 -1.041198 3.097954
v -0.431278 -1.041197 -3.097954
v -0.796898 -0.796898 3.097954
v -0.796898 -0.796898 -3.097954
v -1.041197 -0.431278 3.097954
v -1.041197 -0.431278 -3.097954
v -1.126984 -0.000000 3.097954
v -1.126984 0.000000 -3.097954
v -1.041197 0.431278 3.097954
v -1.041197 0.431278 -3.097954
v -0.796898 0.796898 3.097954
v -0.796898 0.796898 -3.097954
v -0.431278 1.041198 3.097954
v -0.431278 1.041198 -3.097954
v 0.000000 1.000000 -2.853509
v 0.000000 1.000000 2.853509
v 0.382683 0.923879 2.853509
v 0.382683 0.923880 -2.853509
v 0.707107 0.707107 2.853509
v 0.707107 0.707107 -2.853509
v 0.923880 0.382683 2.853509
v 0.923880 0.382683 -2.853509
v 1.000000 -0.000000 2.853509
v 1.000000 -0.000000 -2.853509
v 0.923880 -0.382684 2.853509
v 0.923880 -0.382684 -2.853509
v 0.707107 -0.707107 2.853509
v 0.707107 -0.707107 -2.853509
v 0.382683 -0.923880 2.853509
v 0.382683 -0.923879 -2.853509
v 0.000000 -1.000000 2.853509
v 0.000000 -1.000000 -2.853509
v -0.382683 -0.923880 2.853509
v -0.382683 -0.923880 -2.853509
v -0.707107 -0.707107 2.853509
v -0.707107 -0.707107 -2.853509
v -0.923880 -0.382684 2.853509
v -0.923880 -0.382684 -2.853509
v -1.000000 -0.000000 2.853509
v -1.000000 0.000000 -2.853509
v -0.923879 0.382684 2.853509
v -0.923879 0.382684 -2.853509
v -0.707107 0.707107 2.853509
v -0.707107 0.707107 -2.853509
v -0.382683 0.923880 2.853509
v -0.382683 0.923880 -2.853509
v 0.000000 1.000000 -0.951169
v 0.000000 1.000000 0.951170
v 0.382683 0.923879 0.951170
v 0.382683 0.923880 -0.951170
v 0.707107 0.707107 0.951170
v 0.707107 0.707107 -0.951170
v 0.923880 0.382683 0.951170
v 0.923880 0.382683 -0.951170
v 1.000000 -0.000000 0.951170
v 1.000000 -0.000000 -0.951170
v 0.923880 -0.382684 0.951170
v 0.923880 -0.382684 -0.951170
v 0.707107 -0.707107 0.951169
v 0.707107 -0.707107 -0.951170
v 0.382683 -0.923880 0.951169
v 0.382683 -0.923879 -0.951170
v 0.000000 -1.000000 0.951169
v 0.000000 -1.000000 -0.951170
v -0.382683 -0.923880 0.951169
v -0.382683 -0.923880 -0.951170
v -0.707107 -0.707107 0.951169
v -0.707107 -0.707107 -0.951170
v -0.923880 -0.382684 0.951170
v -0.923880 -0.382684 -0.951170
v -1.000000 0.000000 0.951170
v -1.000000 0.000000 -0.951170
v -0.923879 0.382684 0.951170
v -0.923879 0.382684 -0.951170
v -0.707107 0.707107 0.951170
v -0.707107 0.707107 -0.951170
v -0.382683 0.923880 0.951170
v -0.382683 0.923880 -0.951170
v 0.000000 0.911202 -0.713605
v 0.000000 0.911202 0.713606
v 0.348702 0.841841 0.713606
v 0.348702 0.841841 -0.713606
v 0.644317 0.644317 0.713605
v 0.644317 0.644317 -0.713606
v 0.841841 0.348702 0.713605
v 0.841841 0.348702 -0.713606
v 0.911202 -0.000000 0.713605
v 0.911202 -0.000000 -0.713606
v 0.841841 -0.348702 0.713605
v 0.841841 -0.348702 -0.713606
v 0.644317 -0.644317 0.713605
v 0.644317 -0.644317 -0.713606
v 0.348702 -0.841841 0.713605
v 0.348702 -0.841841 -0.713606
v 0.000000 -0.911202 0.713605
v 0.000000 -0.911202 -0.713606
v -0.348702 -0.841841 0.713605
v -0.348702 -0.841841 -0.713606
v -0.644317 -0.644317 0.713605
v -0.644317 -0.644317 -0.713606
v -0.841841 -0.348702 0.713605
v -0.841841 -0.348702 -0.713606
v -0.911202 0.000000 0.713605
v -0.911202 0.000000 -0.713606
v -0.841841 0.348702 0.713605
v -0.841841 0.348702 -0.713606
v -0.644317 0.644317 0.713605
v -0.644317 0.644317 -0.713606
v -0.348702 0.841841 0.713606
v -0.348702 0.841841 -0.713606
vt 1.000000 0.958134
vt 1.000000 1.000000
vt 0.937500 1.000000
vt 0.937500 0.958134
vt 0.875000 1.000000
vt 0.875000 0.958134
vt 0.812500 1.000000
vt 0.812500 0.958134
vt 0.750000 1.000000
vt 0.750000 0.958134
vt 0.687500 1.000000
vt 0.687500 0.958134
vt 0.625000 1.000000
vt 0.625000 0.958134
vt 0.562500 1.000000
vt 0.562500 0.958134
vt 0.500000 1.000000
vt 0.500000 0.958134
vt 0.437500 1.000000
vt 0.437500 0.958134
vt 0.375000 1.000000
vt 0.375000 0.958134
vt 0.312500 1.000000
vt 0.312500 0.958134
vt 0.250000 1.000000
vt 0.250000 0.958134
vt 0.187500 1.000000
vt 0.187500 0.958134
vt 0.125000 1.000000
vt 0.125000 0.958134
vt 0.341844 0.471731
vt 0.250000 0.490000
vt 0.158156 0.471731
vt 0.080294 0.419706
vt 0.028269 0.341844
vt 0.010000 0.250000
vt 0.028269 0.158156
vt 0.080294 0.080294
vt 0.158156 0.028269
vt 0.250000 0.010000
vt 0.341844 0.028269
vt 0.419706 0.080294
vt 0.471731 0.158156
vt 0.490000 0.250000
vt 0.471731 0.341844
vt 0.419706 0.419706
vt 0.062500 1.000000
vt 0.062500 0.958134
vt 0.000000 1.000000
vt 0.000000 0.958134
vt 0.750000 0.490000
vt 0.841844 0.471731
vt 0.919706 0.419706
vt 0.971731 0.341844
vt 0.990000 0.250000
vt 0.971731 0.158156
vt 0.919706 0.080294
vt 0.841844 0.028269
vt 0.750000 0.010000
vt 0.658156 0.028269
vt 0.580294 0.080294
vt 0.528269 0.158156
vt 0.510000 0.250000
vt 0.528269 0.341844
vt 0.580294 0.419706
vt 0.658156 0.471731
vt 0.062500 0.500000
vt 0.062500 0.541866
vt 0.000000 0.541866
vt 0.000000 0.500000
vt 0.062500 0.941712
vt 0.000000 0.941711
vt 0.125000 0.500000
vt 0.125000 0.541866
vt 0.125000 0.941712
vt 0.187500 0.500000
vt 0.187500 0.541866
vt 0.187500 0.941711
vt 0.250000 0.500000
vt 0.250000 0.541866
vt 0.250000 0.941712
vt 0.312500 0.500000
vt 0.312500 0.541866
vt 0.312500 0.941711
vt 0.375000 0.500000
vt 0.375000 0.541866
vt 0.375000 0.941712
vt 0.437500 0.500000
vt 0.437500 0.541866
vt 0.437500 0.941711
vt 0.500000 0.500000
vt 0.500000 0.541866
vt 0.500000 0.941712
vt 0.562500 0.500000
vt 0.562500 0.541866
vt 0.562500 0.941712
vt 0.625000 0.500000
vt 0.625000 0.541866
vt 0.625000 0.941711
vt 0.687500 0.500000
vt 0.687500 0.541866
vt 0.687500 0.941711
vt 0.750000 0.500000
vt 0.750000 0.541866
vt 0.750000 0.941712
vt 0.812500 0.500000
vt 0.812500 0.541866
vt 0.812500 0.941711
vt 0.875000 0.500000
vt 0.875000 0.541866
vt 0.875000 0.941711
vt 0.937500 0.500000
vt 0.937500 0.541866
vt 0.937500 0.941712
vt 1.000000 0.500000
vt 1.000000 0.541866
vt 1.000000 0.941712
vt 1.000000 0.558288
vt 0.937500 0.558288
vt 1.000000 0.813904
vt 0.937500 0.813904
vt 0.875000 0.558288
vt 0.875000 0.813904
vt 0.812500 0.558288
vt 0.812500 0.813904
vt 0.750000 0.558288
vt 0.750000 0.813904
vt 0.687500 0.558288
vt 0.687500 0.813904
vt 0.625000 0.558288
vt 0.625000 0.813904
vt 0.562500 0.558288
vt 0.562500 0.813904
vt 0.500000 0.558288
vt 0.500000 0.813904
vt 0.437500 0.558288
vt 0.437500 0.813904
vt 0.375000 0.558288
vt 0.375000 0.813904
vt 0.312500 0.558288
vt 0.312500 0.813904
vt 0.250000 0.558288
vt 0.250000 0.813904
vt 0.187500 0.558288
vt 0.187500 0.813904
vt 0.125000 0.558288
vt 0.125000 0.813904
vt 0.062500 0.558288
vt 0.062500 0.813904
vt 0.000000 0.558288
vt 0.000000 0.813904
vt 0.062500 0.686096
vt 0.000000 0.686096
vt 0.062500 0.802615
vt 0.000000 0.802615
vt 0.125000 0.686096
vt 0.125000 0.802615
vt 0.187500 0.686096
vt 0.187500 0.802615
vt 0.250000 0.686096
vt 0.250000 0.802615
vt 0.312500 0.686096
vt 0.312500 0.802615
vt 0.375000 0.686096
vt 0.375000 0.802615
vt 0.437500 0.686096
vt 0.437500 0.802615
vt 0.500000 0.686096
vt 0.500000 0.802615
vt 0.562500 0.686096
vt 0.562500 0.802615
vt 0.625000 0.686096
vt 0.625000 0.802615
vt 0.687500 0.686096
vt 0.687500 0.802615
vt 0.750000 0.686096
vt 0.750000 0.802615
vt 0.812500 0.686096
vt 0.812500 0.802615
vt 0.875000 0.686096
vt 0.875000 0.802615
vt 0.937500 0.686096
vt 0.937500 0.802615
vt 1.000000 0.686096
vt 1.000000 0.802615
vt 1.000000 0.697385
vt 0.937500 0.697385
vt 0.875000 0.697385
vt 0.812500 0.697384
vt 0.750000 0.697384
vt 0.687500 0.697385
vt 0.625000 0.697385
vt 0.562500 0.697385
vt 0.500000 0.697385
vt 0.437500 0.697385
vt 0.375000 0.697385
vt 0.312500 0.697385
vt 0.250000 0.697385
vt 0.187500 0.697385
vt 0.125000 0.697385
vt 0.062500 0.697385
vt 0.000000 0.697385
vn 0.1951 0.9808 0.0000
vn 0.5556 0.8315 0.0000
vn 0.8315 0.5556 0.0000
vn 0.9808 0.1951 0.0000
vn 0.9808 -0.1951 -0.0000
vn 0.8315 -0.5556 -0.0000
vn 0.5556 -0.8315 -0.0000
vn 0.1951 -0.9808 0.0000
vn -0.1951 -0.9808 0.0000
vn -0.5556 -0.8315 -0.0000
vn -0.8315 -0.5556 -0.0000
vn -0.9808 -0.1951 -0.0000
vn -0.9808 0.1951 0.0000
vn -0.8315 0.5556 0.0000
vn 0.0000 0.0000 1.0000
vn -0.5556 0.8315 0.0000
vn -0.1951 0.9808 0.0000
vn 0.0000 0.0000 -1.0000
vn -0.1738 0.8739 -0.4540
vn -0.4950 0.7409 -0.4540
vn -0.7409 0.4950 -0.4540
vn -0.8739 0.1738 -0.4540
vn -0.8739 -0.1738 -0.4540
vn -0.7409 -0.4950 -0.4540
vn -0.4950 -0.7409 -0.4540
vn -0.1738 -0.8739 -0.4540
vn 0.1738 -0.8739 -0.4540
vn 0.4950 -0.7409 -0.4540
vn 0.7409 -0.4950 -0.4540
vn 0.8739 -0.1738 -0.4540
vn 0.8739 0.1738 -0.4540
vn 0.7409 0.4950 -0.4540
vn 0.4950 0.7409 -0.4540
vn 0.1738 0.8739 -0.4540
vn 0.1738 0.8739 0.4540
vn 0.4950 0.7409 0.4540
vn 0.7409 0.4950 0.4540
vn 0.8739 0.1738 0.4540
vn 0.8739 -0.1738 0.4540
vn 0.7409 -0.4950 0.4540
vn 0.4950 -0.7409 0.4540
vn 0.1738 -0.8739 0.4540
vn -0.1738 -0.8739 0.4540
vn -0.4950 -0.7409 0.4540
vn -0.7409 -0.4950 0.4540
vn -0.8739 -0.1738 0.4540
vn -0.8739 0.1738 0.4540
vn -0.7409 0.4950 0.4540
vn -0.4950 0.7409 0.4540
vn -0.1738 0.8739 0.4540
vn -0.1832 0.9209 -0.3442
vn -0.5216 0.7807 -0.3442
vn -0.7807 0.5216 -0.3442
vn -0.9209 0.1832 -0.3442
vn -0.9209 -0.1832 -0.3442
vn -0.7807 -0.5216 -0.3442
vn -0.5216 -0.7807 -0.3442
vn -0.1832 -0.9209 -0.3442
vn 0.1832 -0.9209 -0.3442
vn 0.5216 -0.7807 -0.3442
vn 0.7807 -0.5216 -0.3442
vn 0.9209 -0.1832 -0.3442
vn 0.9209 0.1832 -0.3442
vn 0.7807 0.5216 -0.3442
vn 0.5216 0.7807 -0.3442
vn 0.1832 0.9209 -0.3442
vn 0.1832 0.9209 0.3442
vn 0.5216 0.7807 0.3442
vn 0.7807 0.5216 0.3442
vn 0.9209 0.1832 0.3442
vn 0.9209 -0.1832 0.3442
vn 0.7807 -0.5216 0.3442
vn 0.5216 -0.7807 0.3442
vn 0.1832 -0.9209 0.3442
vn -0.1832 -0.9209 0.3442
vn -0.5216 -0.7807 0.3442
vn -0.7807 -0.5216 0.3442
vn -0.9209 -0.1832 0.3442
vn -0.9209 0.1832 0.3442
vn -0.7807 0.5216 0.3442
vn -0.5216 0.7807 0.3442
vn -0.1832 0.9209 0.3442
usemtl Material.001
s off
f 34/1/1 2/2/1 4/3/1 35/4/1
f 35/4/2 4/3/2 6/5/2 37/6/2
f 37/6/3 6/5/3 8/7/3 39/8/3
f 39/8/4 8/7/4 10/9/4 41/10/4
f 41/10/5 10/9/5 12/11/5 43/12/5
f 43/12/6 12/11/6 14/13/6 45/14/6
f 45/14/7 14/13/7 16/15/7 47/16/7
f 47/16/8 16/15/8 18/17/8 49/18/8
f 49/18/9 18/17/9 20/19/9 51/20/9
f 51/20/10 20/19/10 22/21/10 53/22/10
f 53/22/11 22/21/11 24/23/11 55/24/11
f 55/24/12 24/23/12 26/25/12 57/26/12
f 57/26/13 26/25/13 28/27/13 59/28/13
f 59/28/14 28/27/14 30/29/14 61/30/14
f 4/31/15 2/32/15 32/33/15 30/34/15 28/35/15 26/36/15 24/37/15 22/38/15 20/39/15 18/40/15 16/41/15 14/42/15 12/43/15 10/44/15 8/45/15 6/46/15
f 61/30/16 30/29/16 32/47/16 63/48/16
f 63/48/17 32/47/17 2/49/17 34/50/17
f 1/51/18 3/52/18 5/53/18 7/54/18 9/55/18 11/56/18 13/57/18 15/58/18 17/59/18 19/60/18 21/61/18 23/62/18 25/63/18 27/64/18 29/65/18 31/66/18
f 31/67/17 64/68/17 33/69/17 1/70/17
f 95/71/19 63/48/19 34/50/19 66/72/19
f 29/73/16 62/74/16 64/68/16 31/67/16
f 93/75/20 61/30/20 63/48/20 95/71/20
f 27/76/14 60/77/14 62/74/14 29/73/14
f 91/78/21 59/28/21 61/30/21 93/75/21
f 25/79/13 58/80/13 60/77/13 27/76/13
f 89/81/22 57/26/22 59/28/22 91/78/22
f 23/82/12 56/83/12 58/80/12 25/79/12
f 87/84/23 55/24/23 57/26/23 89/81/23
f 21/85/11 54/86/11 56/83/11 23/82/11
f 85/87/24 53/22/24 55/24/24 87/84/24
f 19/88/10 52/89/10 54/86/10 21/85/10
f 83/90/25 51/20/25 53/22/25 85/87/25
f 17/91/9 50/92/9 52/89/9 19/88/9
f 81/93/26 49/18/26 51/20/26 83/90/26
f 15/94/8 48/95/8 50/92/8 17/91/8
f 79/96/27 47/16/27 49/18/27 81/93/27
f 13/97/7 46/98/7 48/95/7 15/94/7
f 77/99/28 45/14/28 47/16/28 79/96/28
f 11/100/6 44/101/6 46/98/6 13/97/6
f 75/102/29 43/12/29 45/14/29 77/99/29
f 9/103/5 42/104/5 44/101/5 11/100/5
f 73/105/30 41/10/30 43/12/30 75/102/30
f 7/106/4 40/107/4 42/104/4 9/103/4
f 71/108/31 39/8/31 41/10/31 73/105/31
f 5/109/3 38/110/3 40/107/3 7/106/3
f 69/111/32 37/6/32 39/8/32 71/108/32
f 3/112/2 36/113/2 38/110/2 5/109/2
f 67/114/33 35/4/33 37/6/33 69/111/33
f 1/115/1 33/116/1 36/113/1 3/112/1
f 66/117/34 34/1/34 35/4/34 67/114/34
f 33/116/35 65/118/35 68/119/35 36/113/35
f 98/120/1 66/117/1 67/114/1 99/121/1
f 36/113/36 68/119/36 70/122/36 38/110/36
f 99/121/2 67/114/2 69/111/2 101/123/2
f 38/110/37 70/122/37 72/124/37 40/107/37
f 101/123/3 69/111/3 71/108/3 103/125/3
f 40/107/38 72/124/38 74/126/38 42/104/38
f 103/125/4 71/108/4 73/105/4 105/127/4
f 42/104/39 74/126/39 76/128/39 44/101/39
f 105/127/5 73/105/5 75/102/5 107/129/5
f 44/101/40 76/128/40 78/130/40 46/98/40
f 107/129/6 75/102/6 77/99/6 109/131/6
f 46/98/41 78/130/41 80/132/41 48/95/41
f 109/131/7 77/99/7 79/96/7 111/133/7
f 48/95/42 80/132/42 82/134/42 50/92/42
f 111/133/8 79/96/8 81/93/8 113/135/8
f 50/92/43 82/134/43 84/136/43 52/89/43
f 113/135/9 81/93/9 83/90/9 115/137/9
f 52/89/44 84/136/44 86/138/44 54/86/44
f 115/137/10 83/90/10 85/87/10 117/139/10
f 54/86/45 86/138/45 88/140/45 56/83/45
f 117/139/11 85/87/11 87/84/11 119/141/11
f 56/83/46 88/140/46 90/142/46 58/80/46
f 119/141/12 87/84/12 89/81/12 121/143/12
f 58/80/47 90/142/47 92/144/47 60/77/47
f 121/143/13 89/81/13 91/78/13 123/145/13
f 60/77/48 92/144/48 94/146/48 62/74/48
f 123/145/14 91/78/14 93/75/14 125/147/14
f 62/74/49 94/146/49 96/148/49 64/68/49
f 125/147/16 93/75/16 95/71/16 127/149/16
f 64/68/50 96/148/50 65/150/50 33/69/50
f 127/149/17 95/71/17 66/72/17 98/151/17
f 96/148/17 128/152/17 97/153/17 65/150/17
f 159/154/51 127/149/51 98/151/51 130/155/51
f 94/146/16 126/156/16 128/152/16 96/148/16
f 157/157/52 125/147/52 127/149/52 159/154/52
f 92/144/14 124/158/14 126/156/14 94/146/14
f 155/159/53 123/145/53 125/147/53 157/157/53
f 90/142/13 122/160/13 124/158/13 92/144/13
f 153/161/54 121/143/54 123/145/54 155/159/54
f 88/140/12 120/162/12 122/160/12 90/142/12
f 151/163/55 119/141/55 121/143/55 153/161/55
f 86/138/11 118/164/11 120/162/11 88/140/11
f 149/165/56 117/139/56 119/141/56 151/163/56
f 84/136/10 116/166/10 118/164/10 86/138/10
f 147/167/57 115/137/57 117/139/57 149/165/57
f 82/134/9 114/168/9 116/166/9 84/136/9
f 145/169/58 113/135/58 115/137/58 147/167/58
f 80/132/8 112/170/8 114/168/8 82/134/8
f 143/171/59 111/133/59 113/135/59 145/169/59
f 78/130/7 110/172/7 112/170/7 80/132/7
f 141/173/60 109/131/60 111/133/60 143/171/60
f 76/128/6 108/174/6 110/172/6 78/130/6
f 139/175/61 107/129/61 109/131/61 141/173/61
f 74/126/5 106/176/5 108/174/5 76/128/5
f 137/177/62 105/127/62 107/129/62 139/175/62
f 72/124/4 104/178/4 106/176/4 74/126/4
f 135/179/63 103/125/63 105/127/63 137/177/63
f 70/122/3 102/180/3 104/178/3 72/124/3
f 133/181/64 101/123/64 103/125/64 135/179/64
f 68/119/2 100/182/2 102/180/2 70/122/2
f 131/183/65 99/121/65 101/123/65 133/181/65
f 65/118/1 97/184/1 100/182/1 68/119/1
f 130/185/66 98/120/66 99/121/66 131/183/66
f 97/184/67 129/186/67 132/187/67 100/182/67
f 129/186/1 130/185/1 131/183/1 132/187/1
f 100/182/68 132/187/68 134/188/68 102/180/68
f 132/187/2 131/183/2 133/181/2 134/188/2
f 102/180/69 134/188/69 136/189/69 104/178/69
f 134/188/3 133/181/3 135/179/3 136/189/3
f 104/178/70 136/189/70 138/190/70 106/176/70
f 136/189/4 135/179/4 137/177/4 138/190/4
f 106/176/71 138/190/71 140/191/71 108/174/71
f 138/190/5 137/177/5 139/175/5 140/191/5
f 108/174/72 140/191/72 142/192/72 110/172/72
f 140/191/6 139/175/6 141/173/6 142/192/6
f 110/172/73 142/192/73 144/193/73 112/170/73
f 142/192/7 141/173/7 143/171/7 144/193/7
f 112/170/74 144/193/74 146/194/74 114/168/74
f 144/193/8 143/171/8 145/169/8 146/194/8
f 114/168/75 146/194/75 148/195/75 116/166/75
f 146/194/9 145/169/9 147/167/9 148/195/9
f 116/166/76 148/195/76 150/196/76 118/164/76
f 148/195/10 147/167/10 149/165/10 150/196/10
f 118/164/77 150/196/77 152/197/77 120/162/77
f 150/196/11 149/165/11 151/163/11 152/197/11
f 120/162/78 152/197/78 154/198/78 122/160/78
f 152/197/12 151/163/12 153/161/12 154/198/12
f 122/160/79 154/198/79 156/199/79 124/158/79
f 154/198/13 153/161/13 155/159/13 156/199/13
f 124/158/80 156/199/80 158/200/80 126/156/80
f 156/199/14 155/159/14 157/157/14 158/200/14
f 126/156/81 158/200/81 160/201/81 128/152/81
f 158/200/16 157/157/16 159/154/16 160/201/16
f 128/152/82 160/201/82 129/202/82 97/153/82
f 160/201/17 159/154/17 130/155/17 129/202/17
